<svg version="1.1" x="0px" y="0px" enable-background="new 0 0 100 100" xmlSpace="preesrve" xmlns="http://www.w3.org/2000/svg" xmlns:xlink="http://www.w3.org/1999/xlink">
    <symbol id="icon-flowers" viewBox="0 0 51 64">
            <path d="M41.6,45.4048473 C31,45.5173955 20.4,45.5173955 9.7,45.4048473 C9.6,45.4048473 9.5,45.4611214 9.5,45.5173955 L11.6,61.3866818 C11.6,62.455889 13.1,63.3 15,63.3 L36.3,63.3 C38.2,63.3 39.7,62.455889 39.7,61.3866818 L41.8,45.5173955 C41.8,45.4048473 41.7,45.4048473 41.6,45.4048473 Z" id="Path"></path>
            <path d="M43.3,35.7519037 C31.3,35.9258306 20,35.9258306 8,35.7519037 C6.7,35.7519037 5.7,36.6215383 5.7,37.7520632 L5.4,42.5350533 C5.4,43.6655782 6.4,44.5352128 7.7,44.5352128 C19.7,44.7091397 31.6,44.7091397 43.5,44.5352128 C44.8,44.5352128 45.8,43.6655782 45.8,42.5350533 L45.5,37.7520632 C45.5,36.6215383 44.5,35.7519037 43.3,35.7519037 Z" id="Path"></path>
            <path d="M28,35.2386627 C27.6,35.2386627 27.3,35.0143615 27.3,34.7152932 C27.3,21.0329174 32.9,15.0515509 34.6,13.5562093 C34.9,13.3319081 35.3,13.3319081 35.6,13.4814422 C35.9,13.7057435 35.9,14.0048118 35.7,14.229113 C32.3,17.2197963 28.7,24.0983677 28.7,34.7152932 C28.7,35.0143615 28.4,35.2386627 28,35.2386627 Z" id="Path"></path>
            <path d="M50.2,7.35054162 C47.3,7.7991441 44.8,8.62158199 43.4,10.1916907 C41.6,12.2104019 38,14.154346 35.9,13.3319081 C33.9,12.359936 34.4,9.07018447 35.8,6.90193913 C36.9,5.18229628 36.7,3.1635851 35.7,1.07010684 C37.6,1.96731181 39,3.01405094 39.9,4.28509131 C41.6,3.1635851 43.3,2.19161305 45,1.66824348 C45.2,3.08881802 44.9,4.58415963 44.4,6.30380249 C46.3,6.15426833 48.2,6.52810373 50.2,7.35054162 Z" id="Path"></path>
            <path d="M22.8,35.2386627 C22.4,35.2386627 22.1,35.0143615 22.1,34.7152932 C22.1,24.1731348 18.5,17.2197963 15.1,14.229113 C14.8,14.0048118 14.9,13.7057435 15.2,13.4814422 C15.5,13.3319081 15.9,13.3319081 16.2,13.5562093 C17.9,15.0515509 23.5,21.0329174 23.5,34.7152932 C23.5,35.0143615 23.1,35.2386627 22.8,35.2386627 Z" id="Path"></path>
            <path d="M0.5,7.35054162 C3.4,7.7991441 5.9,8.62158199 7.3,10.1916907 C9.1,12.2104019 12.7,14.154346 14.8,13.3319081 C16.8,12.359936 16.3,9.07018447 14.9,6.90193913 C13.8,5.18229628 14,3.1635851 15,1.07010684 C13.1,1.96731181 11.7,3.01405094 10.8,4.28509131 C9.1,3.1635851 7.4,2.19161305 5.7,1.66824348 C5.5,3.08881802 5.8,4.58415963 6.3,6.30380249 C4.4,6.15426833 2.5,6.52810373 0.5,7.35054162 Z" id="Path"></path>
            <path d="M25.5,35.2386627 C25.1,35.2386627 24.8,35.0143615 24.8,34.7152932 L24.8,12.5842373 C24.8,12.2851689 25.1,12.0608677 25.5,12.0608677 C25.9,12.0608677 26.2,12.2851689 26.2,12.5842373 L26.2,34.7152932 C26.2,35.0143615 25.8,35.2386627 25.5,35.2386627 Z" id="Path"></path>
            <path d="M33.9,8.32251367 C34.1,7.7991441 32.7,7.05147329 30.9,6.67763789 C30.8,6.67763789 30.8,6.67763789 30.7,6.60287081 C30.8,6.60287081 30.9,6.60287081 30.9,6.60287081 C32.8,6.22903541 34.2,5.55613168 34,5.03276211 C33.8,4.50939255 32.2,4.35985839 30.3,4.73369379 C30.2,4.73369379 30.2,4.73369379 30.1,4.80846087 C30.2,4.73369379 30.2,4.73369379 30.3,4.65892671 C31.7,3.68695466 32.4,2.49068137 31.9,2.11684597 C31.4,1.74301056 29.9,2.26638013 28.5,3.23835218 C28.4,3.23835218 28.3,3.23835218 28.3,3.31311926 C28.3,3.23835218 28.4,3.23835218 28.4,3.1635851 C28.9,1.74301056 28.8,0.546737271 28.1,0.39720311 C27.4,0.247668948 26.4,1.29440808 25.9,2.64021553 C25.9,2.71498261 25.9,2.71498261 25.8,2.78974969 C25.8,2.71498261 25.8,2.64021553 25.8,2.64021553 C25.3,1.219641 24.4,0.172901868 23.7,0.322436029 C23,0.471970191 22.8,1.66824348 23.3,3.08881802 C23.3,3.1635851 23.3,3.1635851 23.4,3.23835218 C23.3,3.1635851 23.3,3.1635851 23.2,3.08881802 C21.9,2.04207889 20.3,1.51870932 19.8,1.89254472 C19.3,2.26638013 20,3.38788634 21.3,4.43462547 C21.4,4.50939255 21.4,4.50939255 21.5,4.58415963 C21.4,4.58415963 21.4,4.50939255 21.3,4.50939255 C19.4,4.13555715 17.8,4.21032423 17.6,4.73369379 C17.4,5.25706336 18.8,6.00473416 20.6,6.37856957 C20.7,6.37856957 20.7,6.37856957 20.8,6.45333665 C20.7,6.45333665 20.6,6.45333665 20.6,6.45333665 C18.7,6.82717205 17.3,7.50007578 17.5,8.02344534 C17.7,8.54681491 19.3,8.69634907 21.2,8.32251367 C21.3,8.32251367 21.3,8.32251367 21.4,8.24774659 C21.3,8.32251367 21.3,8.32251367 21.2,8.39728075 C19.8,9.3692528 19.1,10.5655261 19.6,10.9393615 C20.1,11.3131969 21.6,10.7898273 23,9.81785528 C23.1,9.7430882 23.1,9.7430882 23.2,9.66832112 C23.2,9.7430882 23.1,9.7430882 23.1,9.81785528 C22.6,11.2384298 22.7,12.4347031 23.4,12.5842373 C24.1,12.7337714 25.1,11.6870323 25.6,10.3412248 C25.6,10.2664578 25.6,10.2664578 25.7,10.1916907 C25.7,10.2664578 25.7,10.3412248 25.7,10.3412248 C26.2,11.7617994 27.1,12.8085385 27.8,12.6590043 C28.5,12.5094702 28.7,11.3131969 28.2,9.89262236 C28.2,9.81785528 28.2,9.81785528 28.1,9.7430882 C28.2,9.81785528 28.2,9.81785528 28.3,9.89262236 C29.6,10.9393615 31.2,11.4627311 31.7,11.0888957 C32.2,10.7150602 31.5,9.59355404 30.2,8.54681491 C30,8.54681491 30,8.47204783 29.9,8.47204783 C30,8.47204783 30,8.54681491 30.1,8.54681491 C32,8.92065031 33.7,8.84588323 33.9,8.32251367 Z M26.1,5.40659752 C26.3,5.40659752 26.4,5.40659752 26.6,5.33183044 C26.6,5.4813646 26.6,5.63089876 26.8,5.70566584 C26.9,5.78043292 27.1,5.8552 27.3,5.8552 C27.2,6.00473416 27.1,6.15426833 27.2,6.22903541 C27.2,6.37856957 27.4,6.45333665 27.6,6.52810373 C27.4,6.60287081 27.3,6.67763789 27.2,6.82717205 C27.2,6.97670621 27.2,7.05147329 27.3,7.20100746 C27.1,7.20100746 26.9,7.20100746 26.8,7.35054162 C26.7,7.4253087 26.6,7.57484286 26.6,7.72437702 C26.4,7.64960994 26.2,7.57484286 26.1,7.64960994 C25.9,7.64960994 25.8,7.7991441 25.7,7.94867826 C25.6,7.7991441 25.5,7.72437702 25.3,7.64960994 C25.1,7.64960994 25,7.64960994 24.8,7.72437702 C24.8,7.57484286 24.8,7.4253087 24.6,7.35054162 C24.5,7.27577454 24.3,7.20100746 24.1,7.20100746 C24.2,7.05147329 24.3,6.90193913 24.2,6.82717205 C24.2,6.67763789 24,6.60287081 23.8,6.52810373 C24,6.45333665 24.1,6.37856957 24.2,6.22903541 C24.2,6.07950124 24.2,6.00473416 24.1,5.8552 C24.3,5.8552 24.5,5.8552 24.6,5.70566584 C24.7,5.63089876 24.8,5.4813646 24.8,5.33183044 C25,5.40659752 25.2,5.4813646 25.3,5.40659752 C25.5,5.40659752 25.6,5.25706336 25.7,5.1075292 C25.8,5.25706336 26,5.33183044 26.1,5.40659752 Z" id="Shape" fill-rule="nonzero"></path>
            <path d="M33.7,35.0143615 C32.9,32.1732124 34.3,29.1825292 37.4,27.3133522 C38.8,26.4909143 40.4,25.8180106 42.3,25.5189422 C43.4,25.3694081 44.5,25.294641 45.6,25.3694081 C46.2,25.4441752 47.5,25.5189422 47.9,25.8180106 C48.7,26.1170789 47.2,26.5656814 47.1,26.5656814 C46.1,26.8647497 45.1,27.163818 44.1,27.5376534 C42.7,27.9862559 41.2,28.5096255 40,29.1825292 C38.3,30.0797342 37.1,31.1264733 36.1,32.4722807 C35.7,33.0704174 35.3,33.7433211 35,34.4162248 C34.9,34.565759 34.9,34.8648273 34.7,35.0891286 C34.4,35.3134298 33.8,35.3134298 33.7,35.0143615 Z" id="Path"></path>
            <path d="M30.3,34.9395944 C29.7,28.2105571 33.3,19.3132745 43.4,17.6683988 C44.6,17.5188646 43.3,18.4908366 43.2,18.5656037 C42.3,19.1637404 41.4,19.8366441 40.6,20.4347807 C38.8,21.9301224 37.1,23.5749981 35.8,25.3694081 C34.5,27.2385851 33.5,29.1825292 32.7,31.2012404 C32.3,32.0984453 32,32.9956503 31.7,33.9676224 C31.6,34.3414578 31.4,34.6405261 31.3,34.9395944 C31.1,35.3881969 30.4,35.3881969 30.3,34.9395944 Z" id="Path"></path>
            <path d="M16.1,35.0143615 C15,32.5470478 13.5,30.3040354 10.5,28.9582279 C8.8,28.2105571 7,27.5376534 5.2,27.0142838 C4.6,26.8647497 3.3,26.6404484 2.9,26.266613 C2.4,25.8180106 3.3,25.6684764 3.8,25.5189422 C7.3,24.6217373 11.6,25.8180106 14,27.7619547 C15.5,28.9582279 16.7,30.3788025 17.1,32.0236783 C17.3,32.7713491 17.3,33.5190199 17.2,34.3414578 C17.2,34.4909919 17.1,34.8648273 17,35.0143615 C16.9,35.3134298 16.3,35.3134298 16.1,35.0143615 Z" id="Path"></path>
            <path d="M19.5,35.0143615 C18.1,31.3507745 16.8,27.6124205 14.1,24.3226689 C12.7,22.6030261 11,21.0329174 9,19.6123429 C8.6,19.3132745 8.2,19.0889733 7.8,18.789905 C7.6,18.6403708 7.1,18.4160696 6.9,18.1917683 C6.4,17.3693304 8,17.8179329 8.4,17.9674671 C13.2,19.0142062 16.3,22.1544236 18.4,25.3694081 C19.5,27.0890509 20,29.032995 20.3,30.902172 C20.5,31.8741441 20.5,32.9208832 20.5,33.8928553 C20.5,34.2666907 20.4,34.565759 20.4,34.9395944 C20.4,35.3134298 19.7,35.462964 19.5,35.0143615 Z" id="Path"></path>
    </symbol>
</svg>