<svg
  xmlns="http://www.w3.org/2000/svg"
  xmlnsXlink="http://www.w3.org/1999/xlink"
  version="1.1"
  x="0px"
  y="0px"
  enable-background="new 0 0 100 100"
  xmlSpace="preserve"
>
<!-- <defs> -->
<symbol id="icon-flowers" viewBox="0 0 100 125">
  <path d="M65.6,63.5c-10.6,0.2-21.2,0.2-31.9,0c-0.1,0-0.2,0.1-0.2,0.2l2.1,28.2c0,1.9,1.5,3.4,3.4,3.4h21.3c1.9,0,3.4-1.5,3.4-3.4  l2.1-28.2C65.8,63.5,65.7,63.5,65.6,63.5z" />
  <path d="M67.3,52.4c-12,0.2-23.3,0.2-35.3,0c-1.3,0-2.3,1-2.3,2.3l-0.3,5.5c0,1.3,1,2.3,2.3,2.3c12,0.2,23.9,0.2,35.8,0  c1.3,0,2.3-1,2.3-2.3l-0.3-5.5C69.5,53.4,68.5,52.4,67.3,52.4z" />
  <g>
    <path d="M52,51.8c-0.4,0-0.7-0.3-0.7-0.7c0-18.3,5.6-26.3,7.3-28.3c0.3-0.3,0.7-0.3,1-0.1c0.3,0.3,0.3,0.7,0.1,1   c-3.4,4-7,13.2-7,27.4C52.7,51.5,52.4,51.8,52,51.8z" />
  </g>
  <path d="M74.2,14.5c-2.9,0.6-5.4,1.7-6.8,3.8c-1.8,2.7-5.4,5.3-7.5,4.2l0,0l0,0c-2-1.3-1.5-5.7-0.1-8.6c1.1-2.3,0.9-5-0.1-7.8  c1.9,1.2,3.3,2.6,4.2,4.3c1.7-1.5,3.4-2.8,5.1-3.5l0,0l0,0c0.2,1.9-0.1,3.9-0.6,6.2C70.3,12.9,72.2,13.4,74.2,14.5z" />
  <g>
    <path d="M46.8,51.8c-0.4,0-0.7-0.3-0.7-0.7c0-14.1-3.6-23.4-7-27.4c-0.3-0.3-0.2-0.7,0.1-1c0.3-0.2,0.7-0.2,1,0.1   c1.7,2,7.3,10,7.3,28.3C47.5,51.5,47.1,51.8,46.8,51.8z" />
  </g>
  <path d="M24.5,14.5c2.9,0.6,5.4,1.7,6.8,3.8c1.8,2.7,5.4,5.3,7.5,4.2l0,0l0,0c2-1.3,1.5-5.7,0.1-8.6c-1.1-2.3-0.9-5,0.1-7.8  c-1.9,1.2-3.3,2.6-4.2,4.3c-1.7-1.5-3.4-2.8-5.1-3.5l0,0l0,0c-0.2,1.9,0.1,3.9,0.6,6.2C28.4,12.9,26.5,13.4,24.5,14.5z" />
  <g>
    <path d="M49.5,51.8c-0.4,0-0.7-0.3-0.7-0.7V21.5c0-0.4,0.3-0.7,0.7-0.7s0.7,0.3,0.7,0.7v29.6C50.2,51.5,49.8,51.8,49.5,51.8z" />
  </g>
  <path d="M57.9,15.8c0.2-0.7-1.2-1.7-3-2.2c-0.1,0-0.1,0-0.2-0.1c0.1,0,0.2,0,0.2,0c1.9-0.5,3.3-1.4,3.1-2.1  c-0.2-0.7-1.8-0.9-3.7-0.4c-0.1,0-0.1,0-0.2,0.1c0.1-0.1,0.1-0.1,0.2-0.2c1.4-1.3,2.1-2.9,1.6-3.4s-2,0.2-3.4,1.5  c-0.1,0-0.2,0-0.2,0.1c0-0.1,0.1-0.1,0.1-0.2c0.5-1.9,0.4-3.5-0.3-3.7s-1.7,1.2-2.2,3c0,0.1,0,0.1-0.1,0.2c0-0.1,0-0.2,0-0.2  c-0.5-1.9-1.4-3.3-2.1-3.1c-0.7,0.2-0.9,1.8-0.4,3.7c0,0.1,0,0.1,0.1,0.2c-0.1-0.1-0.1-0.1-0.2-0.2c-1.3-1.4-2.9-2.1-3.4-1.6  s0.2,2,1.5,3.4c0.1,0.1,0.1,0.1,0.2,0.2c-0.1,0-0.1-0.1-0.2-0.1c-1.9-0.5-3.5-0.4-3.7,0.3s1.2,1.7,3,2.2c0.1,0,0.1,0,0.2,0.1  c-0.1,0-0.2,0-0.2,0c-1.9,0.5-3.3,1.4-3.1,2.1s1.8,0.9,3.7,0.4c0.1,0,0.1,0,0.2-0.1c-0.1,0.1-0.1,0.1-0.2,0.2  c-1.4,1.3-2.1,2.9-1.6,3.4s2-0.2,3.4-1.5c0.1-0.1,0.1-0.1,0.2-0.2c0,0.1-0.1,0.1-0.1,0.2c-0.5,1.9-0.4,3.5,0.3,3.7s1.7-1.2,2.2-3  c0-0.1,0-0.1,0.1-0.2c0,0.1,0,0.2,0,0.2c0.5,1.9,1.4,3.3,2.1,3.1c0.7-0.2,0.9-1.8,0.4-3.7c0-0.1,0-0.1-0.1-0.2  c0.1,0.1,0.1,0.1,0.2,0.2c1.3,1.4,2.9,2.1,3.4,1.6s-0.2-2-1.5-3.4C54,16.1,54,16,53.9,16c0.1,0,0.1,0.1,0.2,0.1  C56,16.6,57.7,16.5,57.9,15.8z M50.1,11.9c0.2,0,0.3,0,0.5-0.1c0,0.2,0,0.4,0.2,0.5c0.1,0.1,0.3,0.2,0.5,0.2  c-0.1,0.2-0.2,0.4-0.1,0.5c0,0.2,0.2,0.3,0.4,0.4c-0.2,0.1-0.3,0.2-0.4,0.4c0,0.2,0,0.3,0.1,0.5c-0.2,0-0.4,0-0.5,0.2  c-0.1,0.1-0.2,0.3-0.2,0.5c-0.2-0.1-0.4-0.2-0.5-0.1c-0.2,0-0.3,0.2-0.4,0.4c-0.1-0.2-0.2-0.3-0.4-0.4c-0.2,0-0.3,0-0.5,0.1  c0-0.2,0-0.4-0.2-0.5c-0.1-0.1-0.3-0.2-0.5-0.2c0.1-0.2,0.2-0.4,0.1-0.5c0-0.2-0.2-0.3-0.4-0.4c0.2-0.1,0.3-0.2,0.4-0.4  c0-0.2,0-0.3-0.1-0.5c0.2,0,0.4,0,0.5-0.2c0.1-0.1,0.2-0.3,0.2-0.5c0.2,0.1,0.4,0.2,0.5,0.1c0.2,0,0.3-0.2,0.4-0.4  C49.8,11.7,50,11.8,50.1,11.9z" />
  <path d="M57.7,51.5c-0.8-3.8,0.6-7.8,3.7-10.3c1.4-1.1,3-2,4.9-2.4c1.1-0.2,2.2-0.3,3.3-0.2c0.6,0.1,1.9,0.2,2.3,0.6  c0.8,0.4-0.7,1-0.8,1c-1,0.4-2,0.8-3,1.3c-1.4,0.6-2.9,1.3-4.1,2.2c-1.7,1.2-2.9,2.6-3.9,4.4c-0.4,0.8-0.8,1.7-1.1,2.6  c-0.1,0.2-0.1,0.6-0.3,0.9C58.4,51.9,57.8,51.9,57.7,51.5z" />
  <path d="M54.3,51.4c-0.6-9,3-20.9,13.1-23.1c1.2-0.2-0.1,1.1-0.2,1.2c-0.9,0.8-1.8,1.7-2.6,2.5c-1.8,2-3.5,4.2-4.8,6.6  c-1.3,2.5-2.3,5.1-3.1,7.8c-0.4,1.2-0.7,2.4-1,3.7c-0.1,0.5-0.3,0.9-0.4,1.3C55.1,52,54.4,52,54.3,51.4z" />
  <path d="M40.1,51.5c-1.1-3.3-2.6-6.3-5.6-8.1c-1.7-1-3.5-1.9-5.3-2.6c-0.6-0.2-1.9-0.5-2.3-1c-0.5-0.6,0.4-0.8,0.9-1  c3.5-1.2,7.8,0.4,10.2,3c1.5,1.6,2.7,3.5,3.1,5.7c0.2,1,0.2,2,0.1,3.1c0,0.2-0.1,0.7-0.2,0.9C40.9,51.9,40.3,51.9,40.1,51.5z" />
  <path d="M43.5,51.5c-1.4-4.9-2.7-9.9-5.4-14.3c-1.4-2.3-3.1-4.4-5.1-6.3c-0.4-0.4-0.8-0.7-1.2-1.1c-0.2-0.2-0.7-0.5-0.9-0.8  c-0.5-1.1,1.1-0.5,1.5-0.3c4.8,1.4,7.9,5.6,10,9.9c1.1,2.3,1.6,4.9,1.9,7.4c0.2,1.3,0.2,2.7,0.2,4c0,0.5-0.1,0.9-0.1,1.4  C44.4,51.9,43.7,52.1,43.5,51.5z" />

</symbol>
<!-- </defs> -->
</svg>